<svg width="260" height="261" xmlns="http://www.w3.org/2000/svg" xmlns:xlink="http://www.w3.org/1999/xlink" overflow="hidden"><defs><clipPath id="clip0"><path d="M620 120 880 120 880 381 620 381Z" fill-rule="evenodd" clip-rule="evenodd"/></clipPath></defs><g clip-path="url(#clip0)" transform="translate(-620 -120)"><path d="M0 0 0.000164042 73.4503" stroke="#FFFFFF" stroke-width="5" stroke-miterlimit="8" fill="#FFFFFF" fill-rule="evenodd" transform="matrix(1 0 0 -1 720.5 341.95)"/><path d="M0 0 85.5861 152.175" stroke="#FFFFFF" stroke-width="13" stroke-miterlimit="8" fill="#FFFFFF" fill-rule="evenodd" transform="matrix(1 0 0 -1 713.5 279.675)"/><path d="M0 0 0.000164042 73.4503" stroke="#FFFFFF" stroke-width="5" stroke-miterlimit="8" fill="#FFFFFF" fill-rule="evenodd" transform="matrix(1 0 0 -1 657.5 237.95)"/><path d="M657.5 237.25C671.875 204 727.938 237.25 657.5 280 587.063 237.25 643.125 204 657.5 237.25Z" stroke="#FFFFFF" stroke-width="2" stroke-miterlimit="8" fill="#FFFFFF" fill-rule="evenodd"/><path d="M0 0 0.000164042 73.4503" stroke="#FFFFFF" stroke-width="5" stroke-miterlimit="8" fill="#FFFFFF" fill-rule="evenodd" transform="matrix(1 0 0 -1 844.5 308.95)"/><path d="M654.5 164.5 847.434 237.95" stroke="#FFFFFF" stroke-width="13" stroke-miterlimit="8" fill="#FFFFFF" fill-rule="evenodd"/><path d="M812.35 328.647 831.652 313.861 823.708 291.136 843.581 304.722 862.883 289.936 855.863 313.119 875.736 326.705 851.524 327.447 844.504 350.63 836.561 327.905Z" stroke="#FFFFFF" stroke-width="2.08333" stroke-miterlimit="8" fill="#FFFFFF" fill-rule="evenodd"/><path d="M676.569 340.293C675.336 333.541 681.687 327.323 690.755 326.404 694.429 326.032 698.165 326.588 701.364 327.984 704.755 323.225 712.677 321.417 719.059 323.945 720.175 324.387 721.2 324.947 722.1 325.608 724.741 321.663 731.172 320.061 736.465 322.028 737.93 322.573 739.208 323.361 740.201 324.331 744.457 320.6 751.977 320.14 756.998 323.302 759.109 324.631 760.531 326.464 761.021 328.486 767.994 329.903 772.108 335.27 770.209 340.473 770.05 340.911 769.849 341.339 769.61 341.756 775.202 347.178 773.833 354.949 766.552 359.114 764.285 360.41 761.608 361.249 758.779 361.55 758.716 367.384 752.31 372.074 744.471 372.027 741.852 372.012 739.29 371.457 737.068 370.425 734.417 376.965 725.168 380.661 716.41 378.681 712.74 377.851 709.569 376.096 707.438 373.716 698.472 377.743 686.834 375.577 681.444 368.877 681.376 368.792 681.309 368.707 681.244 368.622 675.375 369.133 670.06 366.015 669.371 361.657 669.004 359.334 670.034 357.009 672.186 355.301 667.105 353.073 665.398 348.184 668.374 344.38 670.09 342.185 673.101 340.735 676.48 340.474Z" stroke="#FFFFFF" stroke-width="2" stroke-miterlimit="8" fill="#FFFFFF" fill-rule="evenodd"/><path d="M678.515 356.145C676.346 356.272 674.177 355.898 672.3 355.075M683.999 367.855C683.127 368.114 682.213 368.286 681.28 368.367M707.432 373.482C706.776 372.749 706.227 371.966 705.794 371.146M737.733 367.656C737.636 368.526 737.417 369.385 737.079 370.22M750.742 351.818C755.661 353.601 758.764 357.328 758.72 361.398M769.56 341.614C768.763 343 767.547 344.23 766.007 345.207M761.036 328.285C761.171 328.845 761.234 329.413 761.223 329.981M738.349 326.306C738.812 325.523 739.425 324.794 740.169 324.142M721.327 327.337C721.516 326.69 721.812 326.063 722.209 325.471M701.352 327.971C702.51 328.476 703.581 329.084 704.541 329.781M677.126 342.198C676.874 341.575 676.688 340.938 676.57 340.294" stroke="#FFFFFF" stroke-width="2" stroke-miterlimit="8" fill="none" fill-rule="evenodd"/><path d="M819 309C795.804 309 777 293.33 777 274 777 254.67 795.804 239 819 239 795.804 253.497 791.103 280.92 808.5 300.25 811.485 303.566 815.02 306.513 819 309Z" stroke="#FFFFFF" stroke-width="2" stroke-miterlimit="8" fill="#FFFFFF" fill-rule="evenodd"/><path d="M0 0 1.73688 122.842" stroke="#FFFFFF" stroke-width="5" stroke-miterlimit="8" fill="#FFFFFF" fill-rule="evenodd" transform="matrix(1 0 0 -1 793.5 251.342)"/></g></svg>